<svg id="Capa_1" enable-background="new 0 0 512.153 512.153" height="512" viewBox="0 0 512.153 512.153" width="512" xmlns="http://www.w3.org/2000/svg" xmlns:xlink="http://www.w3.org/1999/xlink"><linearGradient id="SVGID_1_" gradientUnits="userSpaceOnUse" x1="256.226" x2="256.226" y1="497.153" y2="0"><stop offset="0" stop-color="#c3ffe8"/><stop offset=".9973" stop-color="#f0fff4"/></linearGradient><linearGradient id="SVGID_2_" gradientUnits="userSpaceOnUse" x1="256.077" x2="256.077" y1="512.153" y2="90.294"><stop offset="0" stop-color="#00b59c"/><stop offset="1" stop-color="#9cffac"/></linearGradient><g><g><g><path d="m506.076 183.154-241-180c-4.801-3.9-12.001-4.5-17.701 0l-241 180c-2.1 1.199-3.6 3-4.499 5.1l254.2 308.899 254.499-308.899c-.899-2.1-2.399-3.9-4.499-5.1z" fill="url(#SVGID_1_)"/></g></g><g><g><path d="m181.223 210.023h30v105c0 8.291 6.709 15 15 15h60c8.291 0 15-6.709 15-15v-105h30c5.815 0 11.118-3.369 13.579-8.643 2.476-5.259 1.67-11.484-2.051-15.967l-75-90c-5.713-6.826-17.344-6.826-23.057 0l-75 90c-3.721 4.482-4.526 10.708-2.051 15.967 2.462 5.274 7.765 8.643 13.58 8.643zm329.352-21.769-254.498 216.899-254.2-216.899c-1.201 2.1-1.8 4.499-1.8 6.899v302c0 8.101 6.899 15 15 15h482c8.399 0 15-6.899 15-15v-302c0-2.4-.301-4.799-1.502-6.899z" fill="url(#SVGID_2_)"/></g></g></g></svg>