<svg xmlns="http://www.w3.org/2000/svg">
  <symbol id="email" viewbox="0 0 18 11">
    <g>
      <path clip-rule="evenodd" d="m.680121 0 8.319879 6.07783 8.3199-6.07783zm-.680121
      9.50268v-8.15617l5.26645 3.84725zm17.4822 1.49732h-16.964447l5.989057-4.90014 2.06695
      1.50995.42624.31138.42624-.31138 2.06696-1.50995zm.5178-9.65349v8.15617l-5.2665-4.30892z" />
    </g>
  </symbol>
  <symbol id="phone" viewbox="0 0 15 16">
    <g>
      <path clip-rule="evenodd" d="m3.76491.0343806c-1.11166.5125784-2.16449 1.0532894-2.902912
      1.9126894-.743629.86546-1.094365 2.00737-.695143 3.6009 1.169215 4.66703 5.165665 8.63833
      9.597175 10.27163 1.19487.3867 2.54117.1511 3.42717-.7015.8085-.778 1.5125-2.0526
      1.7718-3.1625.171-.7317-.2727-1.2672-.8797-1.5693l-3.6333-1.80808c-.92031-.24474-1.39971.89725-1.71963
      1.56888-1.43286-.88638-2.52183-1.97467-3.26316-3.49557.64634-.34518 1.71558-.88991
      1.5005-1.80486l-1.71234-3.935653c-.19693-.65483-.84606-1.030622-1.49046-.8766364z" />
    </g>
  </symbol>
  <symbol id="html" viewbox="0 0 33 36">
    <g clip-rule="evenodd">
      <path d="m16.5053.484375h-15.788503l3.099073 31.286025 12.68943 3.6292 12.6788-3.6292
      3.2003-31.286025" fill="#e4492f"/>
      <path d="m4.33063 31.3753 12.16447 3.4214 12.1539-3.4214 3.1095-30.389542h-30.41613zm12.17427
      4.6246-13.20384-3.7175-3.30106-32.2824h33l-3.2909 32.2824z" fill="#131741"/>
      <path d="m26.6955 29.9652 2.6851-27.16442h-13.0017v29.87602" fill="#e96d31"/>
      <path d="m21.024 23.1225-4.6434 1.8142-4.533-1.41v-3.0169l-4.23982-.1083.51475 5.9358
      8.15637 2.6127 8.3387-2.4158 1.0401-11.8813h-14.7388l-.414-4.0133h15.4656l.212-3.93452h-19.89734l1.1408
      11.77352h13.60804" fill="#fff"/>
    </g>
  </symbol>
  <symbol id="css" viewbox="0 0 33 36">
    <g clip-rule="evenodd" fill-rule="evenodd">
      <path d="m16.4471.496094h-15.927569l3.230679 31.348106 12.69689 3.6359 12.6973-3.6359
      3.2307-31.348106" fill="#0066a9"/>
      <path d="m4.2731 31.4578 12.1756 3.4364 12.176-3.4364 3.1282-30.44177h-30.59791zm12.1756
      4.5422-13.21834-3.7356-3.23036-32.2644h33l-3.2203 32.2644z" fill="#111840"/>
      <path d="m26.9696 30.0434 2.5969-27.09418h-13.004v29.72408" fill="#13a1d1"/>
      <path d="m16.4474 29.0266-8.01467-2.2312-.63377-6.3654 3.85404-.0997.2144 3.3271
      4.4778 1.4144 4.7844-1.9225v-4.5523l-13.5251-.1892-.41934-3.6358 9.68154-3.9544-9.89598-.1998-.30666-3.63538h19.66934l-.1022
      3.84498-9.5794 3.8449 8.956.1099-.9409 11.913" fill="#fefefe"/>
    </g>
  </symbol>
  <symbol id="js" viewbox="0 0 36 36">
    <g clip-rule="evenodd" fill-rule="evenodd">
    <path fill="#f0db4f" d="M0 0h36v36H0z"/>
    <path d="M33.055 27.414c-.266-1.644-1.336-3.023-4.508-4.309-1.102-.507-2.332-.867-2.695-1.703-.133-.488-.149-.761-.067-1.054.235-.953
    1.375-1.254 2.277-.98.583.195 1.133.644 1.465 1.359 1.555-1.004 1.551-1 2.637-1.692-.398-.613-.61-.898-.871-1.16-.934-1.047-2.207-1.582-4.242-1.543-.352.047-.707.094-1.059.137-1.02.258-1.988.793-2.555
    1.508-1.703 1.933-1.218 5.316.856 6.71 2.043 1.532 5.043 1.883 5.426 3.317.375 1.754-1.29
    2.324-2.942 2.121-1.218-.254-1.894-.875-2.629-2-1.347.781-1.347.781-2.734 1.578.328.719.676
    1.043 1.227 1.668 2.605 2.645 9.132 2.516 10.304-1.488.047-.137.364-1.055.11-2.469zM19.57
    16.547h-3.367c0 2.906-.012 5.797-.012 8.703 0 1.852.094 3.55-.207 4.07-.492
    1.024-1.77.895-2.351.7-.59-.293-.89-.707-1.242-1.293-.094-.168-.168-.297-.192-.305-.914.555-1.824
    1.117-2.738 1.676.457.933 1.125 1.746 1.984 2.273 1.285.77 3.008 1.004 4.813.59 1.176-.344
    2.187-1.05 2.719-2.129.765-1.414.601-3.125.593-5.016.016-3.086 0-6.171 0-9.27zm0 0"
    fill="#323330"/>
    </g>
  </symbol>
  <symbol id="ts" viewbox="0 0 36 36">
    <path d="M3.516 0h28.972a3.518 3.518 0 0 1 3.516 3.516v28.972a3.518 3.518 0 0 1-3.516 3.516H3.516A3.522 3.522 0 0 1 0 32.484V3.516A3.516 3.516 0 0 1 3.516 0Zm0 0" style="stroke:none;fill-rule:nonzero;fill:#3178c6;fill-opacity:1"/><path d="M22.29 28.617v3.516c.565.297 1.265.515 2.034.664.77.148 1.617.219 2.465.219.844 0 1.613-.075 2.39-.239a6.048 6.048 0 0 0 1.97-.773c.566-.375 1.054-.844 1.335-1.477.278-.632.5-1.336.5-2.25 0-.64-.097-1.195-.289-1.687a3.34 3.34 0 0 0-.843-1.266 5.536 5.536 0 0 0-1.266-.984 15.417 15.417 0 0 0-1.688-.844c-.464-.191-.843-.375-1.27-.555a5.807 5.807 0 0 1-.913-.546 2.523 2.523 0 0 1-.598-.59c-.14-.211-.21-.442-.21-.703 0-.235.062-.457.19-.653.126-.199.301-.36.524-.5.227-.14.508-.246.844-.324a4.869 4.869 0 0 1 1.125-.113c.297 0 .605.023.914.066.324.043.656.11.984.203.332.09.657.207.985.348.308.14.597.3.84.484V17.31a8.66 8.66 0 0 0-1.754-.457 14.224 14.224 0 0 0-2.18-.149 10.6 10.6 0 0 0-2.39.266c-.774.18-1.407.457-1.97.843-.57.38-.984.844-1.335 1.477-.332.59-.493 1.266-.493 2.11 0 1.054.301 1.968.914 2.671.606.774 1.547 1.336 2.743 1.899.488.195.914.39 1.336.582.421.191.773.383 1.054.59.301.203.54.43.703.668.176.238.266.523.266.843 0 .227-.055.438-.164.633a1.35 1.35 0 0 1-.5.508c-.227.14-.5.254-.84.34a5.342 5.342 0 0 1-1.195.117c-.774 0-1.551-.133-2.25-.398a6.728 6.728 0 0 1-2.11-1.196Zm-5.907-8.648h4.5v-2.883H8.297v2.883h4.5v12.867h3.586Zm0 0" style="stroke:none;fill-rule:evenodd;fill:#fff;fill-opacity:1"/>
  </symbol>
  <symbol id="vue" viewBox="0 0 35 31">
    <path d="M21.54.008L17.5 7.164 13.457.008H0l17.5 30.984L35 .008zm0 0" fill="#41b883"/>
    <path d="M21.54.008L17.5 7.164 13.457.008H7l10.5 18.59L28 .008zm0 0" fill="#34495e"/>
  </symbol>
  <symbol id="blanchard-logo" viewBox="0 0 188 25" fill="#f9dd79">
    <g>
      <path d="M0 22.7342H12.6452C17.6323 22.7342 20.1851 20.542 20.1851 16.3686V16.3037C20.1851 13.2021 18.5621 11.3184 15.4346 10.7825V10.4902C18.055 10.0031 19.4243 8.3467 19.4243 5.65108V5.56988C19.4243 1.89993 17.0407 0 12.3748 0H0V22.7342ZM4.9871 9.30479V3.21527H10.8871C13.2707 3.21527 14.4541 4.22207 14.4541 6.20319V6.26815C14.4541 8.28175 13.2707 9.30479 10.8871 9.30479H4.9871ZM4.9871 19.5027V12.2602H11.0392C13.6596 12.2602 14.9613 13.4619 14.9613 15.8165V15.8815C14.9613 18.2848 13.6596 19.5027 11.0392 19.5027H4.9871Z" />
      <path d="M24.8827 0V22.7342H29.8022V0H24.8827Z" />
      <path d="M40.0956 23.1564C44.0683 23.1564 46.9592 21.4514 48.0242 18.5609L48.3623 18.6421C47.7199 21.7924 48.3961 23.1564 52.2844 23.1564C52.7746 23.1564 53.2649 23.1077 53.6706 23.0427L54.2454 20.2334L53.4001 20.2172C52.4703 20.201 52.1998 19.9899 52.1998 18.8369V11.0261C52.1998 7.16128 49.5288 5.31006 43.8317 5.31006C37.7795 5.31006 34.7197 7.59972 34.9732 11.562L39.8251 11.9517C39.6222 9.33727 41.0085 8.15184 43.7302 8.15184C46.1646 8.15184 47.3142 9.01249 47.3142 10.9774V11.9355L42.513 12.7799C37.7119 13.6405 34.5337 15.102 34.5337 18.6745V18.7232C34.5337 21.5488 36.5285 23.1564 40.0956 23.1564ZM42.0566 20.0061C40.3999 20.0061 39.5039 19.4378 39.5039 18.2686V18.2361C39.5039 16.5635 41.0761 15.8815 44.1867 15.2969L47.3142 14.7123V15.508C47.3142 18.1224 44.8629 20.0061 42.0566 20.0061Z" />
      <path d="M58.3852 22.7342H63.3047V14.8097C63.3047 10.9774 65.1812 8.60652 68.2918 8.60652C70.6078 8.60652 71.7574 9.75947 71.7574 11.9679V22.7342H76.6768V10.8312C76.6768 7.25871 74.496 5.37502 70.4388 5.37502C66.7534 5.37502 64.2345 6.93394 62.7468 10.1817L62.4087 10.0355C63.0849 8.10312 63.3216 6.95017 63.3216 5.68355H58.3852V22.7342Z" />
      <path d="M91.3149 23.1402C97.1135 23.1402 100.359 20.8992 100.85 16.5635L95.8794 16.0276C95.6765 18.7557 94.1212 20.136 91.3318 20.136C88.2043 20.136 86.5814 18.2523 86.5814 14.5337V13.738C86.5814 10.1005 88.2212 8.26551 91.2811 8.26551C94.1043 8.26551 95.5751 9.77571 95.7948 12.7961L100.697 12.2602C100.309 7.66468 97.1811 5.27759 91.298 5.27759C84.9078 5.27759 81.5436 8.28175 81.5436 14.0303V14.2414C81.5436 20.0873 84.8739 23.1402 91.3149 23.1402Z" />
      <path d="M105.75 22.7342H110.67V14.8097C110.67 10.9774 112.529 8.62276 115.657 8.62276C117.973 8.62276 119.122 9.75947 119.122 11.9679V22.7342H124.042V10.8312C124.042 7.25871 121.844 5.37502 117.804 5.37502C114.084 5.37502 111.582 6.93393 110.112 10.1654L109.757 10.0355C110.416 8.21679 110.653 6.86898 110.67 5.26135V0H105.75V22.7342Z" />
      <path d="M134.251 23.1564C138.223 23.1564 141.114 21.4514 142.179 18.5609L142.517 18.6421C141.875 21.7924 142.551 23.1564 146.439 23.1564C146.93 23.1564 147.42 23.1077 147.826 23.0427L148.4 20.2334L147.555 20.2172C146.625 20.201 146.355 19.9899 146.355 18.8369V11.0261C146.355 7.16128 143.684 5.31006 137.987 5.31006C131.935 5.31006 128.875 7.59972 129.128 11.562L133.98 11.9517C133.777 9.33727 135.163 8.15184 137.885 8.15184C140.32 8.15184 141.469 9.01249 141.469 10.9774V11.9355L136.668 12.7799C131.867 13.6405 128.689 15.102 128.689 18.6745V18.7232C128.689 21.5488 130.684 23.1564 134.251 23.1564ZM136.212 20.0061C134.555 20.0061 133.659 19.4378 133.659 18.2686V18.2361C133.659 16.5635 135.231 15.8815 138.342 15.2969L141.469 14.7123V15.508C141.469 18.1224 139.018 20.0061 136.212 20.0061Z" />
      <path d="M152.54 22.7342H157.46V15.6054C157.46 11.156 158.897 9.51589 162.65 9.25607L165.067 9.07745L164.492 5.14768C160.52 5.43997 158.677 6.64164 156.851 10.1817L156.53 10.0355C157.324 7.76211 157.51 6.85274 157.477 5.68355H152.54V22.7342Z" />
      <path d="M175.935 23.0427C179.587 23.0427 181.971 21.4189 183.171 18.4797L183.526 18.5933C182.951 20.3796 182.647 21.7924 182.63 22.7342H187.6V0H182.681V4.62804C182.681 6.4143 182.934 7.85954 183.543 9.82443L183.205 9.95434C182.004 7.03137 179.604 5.34254 175.935 5.34254C170.864 5.34254 168.193 8.31423 168.193 13.9978V14.4037C168.193 20.0711 170.864 23.0427 175.935 23.0427ZM177.795 20.1198C174.752 20.1198 173.163 18.2523 173.163 14.5661V13.8192C173.163 10.1167 174.752 8.23303 177.795 8.23303C180.973 8.23303 182.681 10.2142 182.681 13.9003V14.4849C182.681 18.1549 180.973 20.1198 177.795 20.1198Z" />
    </g>
  </symbol>
</svg>
